<svg width="300" height="300" viewBox="0 0 300 300" fill="none" xmlns="http://www.w3.org/2000/svg">
<rect width="300" height="300" fill="black"/>
<path d="M82 141.96C82.6667 143.213 83.0133 143.867 83.04 143.92C83.4933 144.747 83.5067 145.573 83.08 146.4L81.6 149.12L70.6 128.48H73.12C74.2667 128.48 75.0933 128.96 75.6 129.92C77.8933 134.213 80.0267 138.227 82 141.96ZM105.24 128.48C99.8 138.72 95.32 147.12 91.8 153.68C90.9467 155.307 90.5067 156.133 90.48 156.16C90.1867 156.72 89.72 157 89.08 157H85.8C91.0533 147.16 95.8667 138.133 100.24 129.92C100.773 128.96 101.6 128.48 102.72 128.48H105.24ZM141.804 135.6C143.137 137.787 143.804 140.173 143.804 142.76C143.804 145.32 143.137 147.707 141.804 149.92C140.471 152.107 138.657 153.84 136.364 155.12C134.097 156.373 131.617 157 128.924 157C126.231 157 123.737 156.373 121.444 155.12C119.151 153.84 117.337 152.107 116.004 149.92C114.671 147.707 114.004 145.32 114.004 142.76C114.004 140.173 114.671 137.787 116.004 135.6C117.337 133.413 119.151 131.68 121.444 130.4C123.737 129.12 126.231 128.48 128.924 128.48C131.617 128.48 134.097 129.12 136.364 130.4C138.657 131.68 140.471 133.413 141.804 135.6ZM136.844 135.2C134.657 133.093 132.004 132.04 128.884 132.04C125.791 132.04 123.151 133.093 120.964 135.2C118.777 137.28 117.684 139.8 117.684 142.76C117.684 145.693 118.777 148.213 120.964 150.32C123.151 152.4 125.791 153.44 128.884 153.44C132.004 153.44 134.657 152.4 136.844 150.32C139.031 148.213 140.124 145.693 140.124 142.76C140.124 139.8 139.031 137.28 136.844 135.2ZM183.389 128.48L169.749 142.72L183.389 157H180.149C179.323 157 178.603 156.68 177.989 156.04L167.509 145.08L157.029 156.04C156.416 156.68 155.696 157 154.869 157H151.309C154.589 153.56 163.376 144.373 177.669 129.44C178.283 128.8 179.003 128.48 179.829 128.48H183.389ZM162.509 137.56C162.189 137.88 161.816 138.04 161.389 138.04C160.963 138.04 160.589 137.88 160.269 137.56L151.629 128.48H154.869C155.696 128.48 156.416 128.8 157.029 129.44L163.629 136.36L162.509 137.56ZM210.693 132.52C201.413 148.2 196.679 156.187 196.493 156.48C196.306 156.827 196.013 157 195.613 157H192.053C199.279 144.6 204.479 135.653 207.653 130.16C207.919 129.653 208.306 129.253 208.813 128.96C209.346 128.64 209.919 128.48 210.533 128.48H212.773C215.066 132.773 220.146 142.28 228.013 157H225.093C224.213 157 223.559 156.613 223.133 155.84C222.013 153.707 220.453 150.787 218.453 147.08L210.693 132.52Z" fill="white"/>
</svg>
